<svg width="63" height="63" viewBox="0 0 63 63" fill="none" xmlns="http://www.w3.org/2000/svg">
<path d="M32.1841 12.4622C32.0009 12.287 31.7572 12.1891 31.5037 12.1891C31.2502 12.1891 31.0064 12.287 30.8232 12.4622L8.17029 34.1025C8.07408 34.1945 7.99755 34.3051 7.94531 34.4275C7.89307 34.55 7.86621 34.6818 7.86636 34.8149L7.86267 55.125C7.86267 56.1693 8.27751 57.1708 9.01594 57.9092C9.75436 58.6477 10.7559 59.0625 11.8002 59.0625H23.625C24.1471 59.0625 24.6479 58.8551 25.0171 58.4859C25.3863 58.1167 25.5937 57.6159 25.5937 57.0938V40.3594C25.5937 40.0983 25.6974 39.8479 25.882 39.6633C26.0666 39.4787 26.317 39.375 26.5781 39.375H36.4219C36.6829 39.375 36.9333 39.4787 37.1179 39.6633C37.3025 39.8479 37.4062 40.0983 37.4062 40.3594V57.0938C37.4062 57.6159 37.6136 58.1167 37.9829 58.4859C38.3521 58.8551 38.8528 59.0625 39.375 59.0625H51.1949C52.2391 59.0625 53.2407 58.6477 53.9791 57.9092C54.7175 57.1708 55.1324 56.1693 55.1324 55.125V34.8149C55.1325 34.6818 55.1057 34.55 55.0534 34.4275C55.0012 34.3051 54.9246 34.1945 54.8284 34.1025L32.1841 12.4622Z" fill="#AB9C8F"/>
<path d="M60.4049 30.0419L51.201 21.2367V7.875C51.201 7.35285 50.9936 6.8521 50.6244 6.48288C50.2552 6.11367 49.7544 5.90625 49.2323 5.90625H43.326C42.8039 5.90625 42.3031 6.11367 41.9339 6.48288C41.5647 6.8521 41.3573 7.35285 41.3573 7.875V11.8125L34.2304 4.99816C33.5635 4.32387 32.5717 3.9375 31.5 3.9375C30.4319 3.9375 29.4426 4.32387 28.7757 4.99939L2.60366 30.0394C1.83831 30.7777 1.74233 31.9922 2.43877 32.792C2.61366 32.9939 2.8278 33.1581 3.06816 33.2745C3.30851 33.391 3.57006 33.4574 3.83688 33.4696C4.1037 33.4818 4.37022 33.4396 4.6202 33.3455C4.87019 33.2515 5.09842 33.1075 5.291 32.9224L30.8232 8.52469C31.0064 8.34945 31.2502 8.25164 31.5037 8.25164C31.7572 8.25164 32.0009 8.34945 32.1841 8.52469L57.7188 32.9224C58.095 33.2831 58.5988 33.48 59.1198 33.4698C59.6409 33.4597 60.1366 33.2434 60.4984 32.8683C61.254 32.0857 61.1912 30.7937 60.4049 30.0419Z" fill="#AB9C8F"/>
</svg>
