<svg width="90" height="80" viewBox="0 0 90 80" fill="none" xmlns="http://www.w3.org/2000/svg">
<path d="M69.1312 1.47501H20.8687C18.3823 1.47501 15.9978 2.46273 14.2396 4.22088C12.4815 5.97903 11.4937 8.3636 11.4937 10.85V59.15C11.5007 61.6343 12.4906 64.0148 14.2473 65.7715C16.0039 67.5281 18.3845 68.5181 20.8687 68.525H69.1312C71.6155 68.5181 73.9961 67.5281 75.7527 65.7715C77.5094 64.0148 78.4993 61.6343 78.5062 59.15V10.85C78.5062 9.61886 78.2638 8.39978 77.7926 7.26235C77.3215 6.12492 76.6309 5.09143 75.7604 4.22088C74.8898 3.35033 73.8563 2.65977 72.7189 2.18864C71.5815 1.7175 70.3624 1.47501 69.1312 1.47501ZM15.2437 10.85C15.2437 9.35816 15.8364 7.92742 16.8913 6.87253C17.9462 5.81764 19.3769 5.22501 20.8687 5.22501H69.1312C70.6231 5.22501 72.0538 5.81764 73.1087 6.87253C74.1636 7.92742 74.7562 9.35816 74.7562 10.85V43.325L60.2062 28.775C59.1472 27.7298 57.7192 27.1438 56.2312 27.1438C54.7433 27.1438 53.3153 27.7298 52.2562 28.775L35.1562 45.9125C34.7981 46.2558 34.3211 46.4475 33.825 46.4475C33.3289 46.4475 32.8519 46.2558 32.4937 45.9125L30.3937 43.8125C29.3287 42.7789 27.9029 42.2007 26.4187 42.2007C24.9346 42.2007 23.5088 42.7789 22.4437 43.8125L15.2437 51.0125V10.85ZM74.7562 59.15C74.7562 60.6419 74.1636 62.0726 73.1087 63.1275C72.0538 64.1824 70.6231 64.775 69.1312 64.775H20.8687C19.3769 64.775 17.9462 64.1824 16.8913 63.1275C15.8364 62.0726 15.2437 60.6419 15.2437 59.15V56.3375L25.125 46.475C25.4772 46.1355 25.9483 45.9471 26.4375 45.95C26.9379 45.9467 27.4208 46.1345 27.7875 46.475L29.85 48.575C30.909 49.6202 32.3371 50.2063 33.825 50.2063C35.3129 50.2063 36.741 49.6202 37.8 48.575L54.9375 31.4375C55.1118 31.2618 55.3192 31.1223 55.5477 31.0271C55.7761 30.9319 56.0212 30.8829 56.2687 30.8829C56.5163 30.8829 56.7613 30.9319 56.9898 31.0271C57.2183 31.1223 57.4257 31.2618 57.6 31.4375L74.775 48.6125L74.7562 59.15Z" fill="#695128"/>
<path d="M30.2325 29.6187C28.3783 29.6187 26.5657 29.0689 25.024 28.0388C23.4823 27.0086 22.2807 25.5445 21.5711 23.8314C20.8615 22.1183 20.6759 20.2333 21.0376 18.4148C21.3994 16.5962 22.2922 14.9257 23.6034 13.6146C24.9145 12.3035 26.5849 11.4106 28.4035 11.0489C30.2221 10.6871 32.1071 10.8728 33.8201 11.5824C35.5332 12.2919 36.9974 13.4936 38.0275 15.0353C39.0577 16.577 39.6075 18.3895 39.6075 20.2437C39.6075 22.7302 38.6198 25.1147 36.8616 26.8729C35.1035 28.631 32.7189 29.6187 30.2325 29.6187ZM30.2325 14.6187C29.12 14.6187 28.0324 14.9486 27.1074 15.5667C26.1824 16.1848 25.4614 17.0633 25.0357 18.0912C24.6099 19.119 24.4985 20.25 24.7156 21.3411C24.9326 22.4323 25.4683 23.4346 26.255 24.2212C27.0417 25.0079 28.044 25.5436 29.1351 25.7607C30.2262 25.9777 31.3572 25.8663 32.3851 25.4406C33.4129 25.0148 34.2914 24.2939 34.9095 23.3688C35.5276 22.4438 35.8575 21.3563 35.8575 20.2437C35.8575 18.7519 35.2649 17.3212 34.21 16.2663C33.1551 15.2114 31.7243 14.6187 30.2325 14.6187Z" fill="#695128"/>
</svg>
